<?xml version='1.0' encoding='utf-8'?>
<!DOCTYPE svg PUBLIC '-//W3C//DTD SVG 1.1//EN' 'http://www.w3.org/Graphics/SVG/1.1/DTD/svg11.dtd'>
<svg version="1.1" xmlns="http://www.w3.org/2000/svg" viewBox="0 0 512 512" xmlns:xlink="http://www.w3.org/1999/xlink" enable-background="new 0 0 512 512">
      
    <path id="basket" ng-click="basket.click()" fill="#ffffff" stroke="#000000" stroke-miterlimit="10" d="m480.5,15.3h-94.4c-9.8,0-18.2,7-20.1,16.6l-16.6,88.2h-317.9c-8.7-0.4-24.2,8.7-19.7,25.9l49.8,179.6c2.5,8.8 10.5,15 19.7,15h251.4c9.8,0 18.2-7 20.1-16.6l51.5-267.5 76.4-.2c11.3,0 20.4-9.1 20.4-20.4-0.1-11.4-9.3-20.6-20.6-20.6z"/>
    
    <path id="leftTire" ng-click="basket.click()" fill="#ffffff" stroke="#000000" stroke-miterlimit="10" d="m285,374.6c-33,0-59.9,27.4-59.9,61s26.9,61 59.9,61c33,0 59.9-27.4 59.9-61s-26.9-61-59.9-61z"/>
    
    <path id="rightTire" ng-click="basket.click()" fill="#ffffff" stroke="#000000" stroke-miterlimit="10" d="m126.6,374.6c-33,0-59.9,27.4-59.9,61s26.9,61 59.9,61c33,0 59.9-27.4 59.9-61s-26.9-61-59.9-61z"/>
  	
    <style type="text/css">
  	<![CDATA[
    	#basket, #leftTire, #rightTire {cursor:pointer}
    ]]>
	
	</style>
    <animate xlink:href="#basket"
        dur="0.2s" 
        values="#ffffff; #888888; #ffffff" 
        attributeName="fill"
        repeatCount="1"
        begin="click"
   
        fill="freeze"
        id="basketFill"
    />

	<animate xlink:href="#leftTire"
        dur="0.2s" 
        values="#ffffff; #888888; #ffffff" 
        attributeName="fill"
        repeatCount="1"
        begin="basketFill.begin"
        end="basketFill.end"
        fill="freeze"
    />

    <animate xlink:href="#rightTire"
        dur="0.2s" 
        values="#ffffff; #888888; #ffffff" 
        attributeName="fill"
        repeatCount="1"
        begin="basketFill.begin"
        end="basketFill.end"
        fill="freeze"
    />

</svg>
