<?xml version="1.0" encoding="iso-8859-1"?>
<!-- Generator: Adobe Illustrator 19.0.0, SVG Export Plug-In . SVG Version: 6.00 Build 0)  -->
<svg version="1.1" id="Layer_1" xmlns="http://www.w3.org/2000/svg" xmlns:xlink="http://www.w3.org/1999/xlink" x="0px" y="0px"
	 viewBox="0 0 511.999 511.999" style="enable-background:new 0 0 511.999 511.999;" xml:space="preserve">
<g>
	<g>
		<g>
			<path d="M409.935,0l-12.147,57.746H6.291l37.106,226.468h306.755l-8.692,41.32H57.612v33.469H368.62l68.475-325.535h68.613V0
				H409.935z M357.192,250.745H71.827L45.69,91.215h345.058L357.192,250.745z"/>
			<path d="M75.226,392.435c-32.964,0-59.782,26.818-59.782,59.782c0,32.963,26.817,59.782,59.782,59.782
				c32.964,0,59.783-26.818,59.783-59.782C135.009,419.254,108.191,392.435,75.226,392.435z M75.226,478.531
				c-14.509,0-26.313-11.804-26.313-26.313c0-14.509,11.804-26.313,26.313-26.313c14.51,0,26.314,11.804,26.314,26.313
				C101.541,466.727,89.736,478.531,75.226,478.531z"/>
			<path d="M333.516,392.435c-32.964,0-59.782,26.818-59.782,59.782c0,32.963,26.817,59.782,59.782,59.782
				c32.964,0,59.783-26.818,59.783-59.782C393.299,419.254,366.48,392.435,333.516,392.435z M333.516,478.531
				c-14.509,0-26.313-11.804-26.313-26.313c0-14.509,11.804-26.313,26.313-26.313c14.51,0,26.314,11.804,26.314,26.313
				C359.83,466.727,348.026,478.531,333.516,478.531z"/>
		</g>
	</g>
</g>
<g>
</g>
<g>
</g>
<g>
</g>
<g>
</g>
<g>
</g>
<g>
</g>
<g>
</g>
<g>
</g>
<g>
</g>
<g>
</g>
<g>
</g>
<g>
</g>
<g>
</g>
<g>
</g>
<g>
</g>
</svg>
