<?xml version="1.0" encoding="iso-8859-1"?>
<!-- Generator: Adobe Illustrator 19.0.0, SVG Export Plug-In . SVG Version: 6.00 Build 0)  -->
<svg version="1.1" id="Layer_1" xmlns="http://www.w3.org/2000/svg" xmlns:xlink="http://www.w3.org/1999/xlink" x="0px" y="0px"
	 viewBox="0 0 512 512" style="enable-background:new 0 0 512 512;" xml:space="preserve">
<g>
	<g>
		<g>
			<path fill="red" stroke="#000000" stroke-miterlimit="10" d="M401.592,51.871V51.87l-10.84,51.538h-14.93l15.943-35.31L288.623,21.526l-13.815,30.597V9.574H150.321v42.55L126.785,0
				L23.644,46.572l25.664,56.836h-8.545L74.4,308.703h273.169l-7.09,33.705H88.434v33.043h278.859l61.114-290.537h59.948V51.871
				H401.592z M305.141,65.24l42.91,19.375l-8.486,18.793h-51.659L305.141,65.24z M183.365,42.617h58.401v60.79h-58.401V42.617z
				 M67.357,63.09l42.91-19.375l26.955,59.694H85.563L67.357,63.09z M354.518,275.66H102.469L79.66,136.451H383.8L354.518,275.66z"
				/>
			<path fill="blue" stroke="#000000" stroke-miterlimit="10" d="M104.155,402.117c-30.295,0-54.942,24.646-54.942,54.941c0,30.295,24.647,54.942,54.942,54.942
				c30.295,0,54.941-24.647,54.941-54.942C159.097,426.763,134.451,402.117,104.155,402.117z M104.155,478.957
				c-12.075,0-21.899-9.824-21.899-21.899c0-12.074,9.824-21.898,21.899-21.898c12.074,0,21.898,9.824,21.898,21.898
				C126.053,469.133,116.229,478.957,104.155,478.957z"/>
			<path fill="green" stroke="#000000" stroke-miterlimit="10" d="M334.677,402.117c-30.295,0-54.942,24.646-54.942,54.941c0,30.295,24.647,54.942,54.942,54.942
				s54.942-24.647,54.942-54.942C389.619,426.763,364.971,402.117,334.677,402.117z M334.677,478.957
				c-12.075,0-21.899-9.824-21.899-21.899c0-12.074,9.824-21.898,21.899-21.898s21.899,9.824,21.899,21.898
				C356.575,469.133,346.751,478.957,334.677,478.957z"/>
		</g>
	</g>
</g>
</svg>
